<svg width="540" height="540" viewBox="0 0 540 540" fill="none" xmlns="http://www.w3.org/2000/svg">
<path fill-rule="evenodd" clip-rule="evenodd" d="M374.835 470.035C376.835 471.19 379.335 469.747 379.335 467.437L379.335 222.254C379.335 219.944 376.835 218.501 374.835 219.656L312.296 255.763L312.295 353.371C312.295 354.911 310.629 355.873 309.295 355.103L224.764 306.299L162.5 342.247C160.5 343.402 160.5 346.289 162.5 347.443L374.835 470.035Z" fill="#45B783"/>
<path fill-rule="evenodd" clip-rule="evenodd" d="M161.96 146.859C161.96 147.931 162.532 148.921 163.46 149.457L243.37 195.593C243.399 195.61 243.428 195.627 243.455 195.645C243.607 195.743 243.752 195.852 243.909 195.942L296.713 226.429C297.641 226.965 298.785 226.965 299.713 226.429L366.072 188.116C367.406 187.347 367.406 185.422 366.072 184.652L166.46 69.4064C164.46 68.2517 161.96 69.6951 161.96 72.0045V146.859Z" fill="#5BD19B"/>
</svg>
